<svg width="512" height="512" viewBox="0 0 512 512" fill="none" xmlns="http://www.w3.org/2000/svg">
  <rect width="512" height="512" rx="64" fill="#3b82f6"/>
  <path d="M256 96C194.144 96 144 146.144 144 208C144 269.856 194.144 320 256 320C317.856 320 368 269.856 368 208C368 146.144 317.856 96 256 96ZM256 128C301.056 128 336 162.944 336 208C336 253.056 301.056 288 256 288C210.944 288 176 253.056 176 208C176 162.944 210.944 128 256 128Z" fill="white"/>
  <path d="M256 160C229.504 160 208 181.504 208 208C208 234.496 229.504 256 256 256C282.496 256 304 234.496 304 208C304 181.504 282.496 160 256 160Z" fill="white"/>
  <path d="M128 352H384C397.255 352 408 362.745 408 376V408C408 421.255 397.255 432 384 432H128C114.745 432 104 421.255 104 408V376C104 362.745 114.745 352 128 352Z" fill="white"/>
  <path d="M240 376H272V408H240V376Z" fill="#3b82f6"/>
</svg>